<?xml version="1.0" standalone="no"?>
<!DOCTYPE svg PUBLIC "-//W3C//DTD SVG 20010904//EN"
 "http://www.w3.org/TR/2001/REC-SVG-20010904/DTD/svg10.dtd">
<svg version="1.0" xmlns="http://www.w3.org/2000/svg"
 width="1245.000000pt" height="628.000000pt" viewBox="0 0 1245.000000 628.000000"
 preserveAspectRatio="xMidYMid meet">
<metadata>
Created by potrace 1.16, written by Peter Selinger 2001-2019
</metadata>
<g transform="translate(0.000000,628.000000) scale(0.100000,-0.100000)"
fill="#000000" stroke="none">
<path d="M6840 6224 c-145 -31 -317 -106 -427 -188 -185 -136 -227 -239 -188
-467 57 -341 232 -630 382 -629 15 0 34 4 41 8 22 14 32 74 32 192 1 206 17
400 40 473 20 65 29 76 159 212 200 207 256 300 220 364 -28 49 -130 63 -259
35z"/>
<path d="M7610 6029 c-171 -22 -265 -71 -325 -169 -63 -105 -129 -337 -137
-484 l-3 -59 65 -22 c73 -25 166 -70 192 -92 9 -8 22 -13 28 -11 5 1 30 46 53
98 41 91 95 181 134 225 47 53 91 75 237 115 190 52 255 74 326 110 137 69
132 145 -13 214 -149 70 -368 99 -557 75z"/>
<path d="M11561 4709 c-64 -19 -181 -106 -181 -136 0 -12 63 -34 104 -35 27
-1 127 -24 189 -44 41 -14 51 -22 71 -62 52 -105 97 -287 116 -471 11 -114 12
-381 2 -449 l-7 -43 -44 67 c-57 87 -169 204 -248 260 -90 65 -221 122 -309
136 l-74 12 -10 40 c-47 186 -101 307 -154 341 -64 42 -238 -45 -462 -230
-116 -95 -130 -121 -115 -213 14 -80 57 -220 76 -245 9 -12 20 -17 33 -13 30
10 200 208 287 336 88 129 123 175 129 169 4 -5 66 -203 66 -213 0 -3 -8 -6
-17 -6 -27 0 -132 -52 -212 -105 -80 -53 -166 -148 -237 -261 l-45 -72 -97
-22 c-53 -12 -146 -39 -207 -60 -60 -21 -139 -40 -174 -44 -152 -15 -244 -115
-213 -232 7 -24 12 -64 12 -87 0 -268 291 -434 813 -463 110 -7 117 -8 117
-28 0 -12 -83 -586 -183 -1276 l-183 -1255 920 -3 c505 -1 921 0 923 2 7 7
-35 865 -62 1276 -60 882 -153 1654 -235 1940 -6 22 -3 73 12 173 25 169 30
502 9 636 -46 307 -163 552 -315 663 -42 30 -45 31 -95 17z m-633 -1878 c144
-99 195 -213 131 -295 -29 -37 -77 -34 -165 8 -55 26 -184 118 -248 177 -5 4
20 21 55 37 35 16 84 48 109 70 25 23 49 41 53 42 4 0 34 -18 65 -39z"/>
<path d="M6200 4629 c-11 -41 -78 -340 -85 -384 -2 -11 -6 -38 -10 -60 -3 -22
-21 -128 -40 -235 -54 -306 -105 -633 -100 -638 3 -3 34 25 69 61 108 110 160
236 241 582 50 213 62 345 42 458 -14 80 -55 187 -91 238 -14 21 -15 20 -26
-22z"/>
<path d="M7692 4618 c-7 -7 -12 -21 -12 -32 -1 -34 -37 -103 -60 -116 -44 -24
-82 12 -104 97 -14 54 -39 65 -44 19 -9 -76 59 -166 126 -166 30 0 43 8 78 46
49 52 69 123 42 150 -11 11 -16 12 -26 2z"/>
<path d="M7050 4580 c0 -54 20 -100 59 -133 76 -64 167 -5 187 121 5 34 3 43
-11 48 -20 8 -35 -11 -35 -44 0 -38 -29 -88 -57 -101 -46 -21 -87 21 -101 102
-5 28 -13 43 -25 45 -14 3 -17 -4 -17 -38z"/>
<path d="M6809 4283 c-26 -67 -31 -152 -15 -226 21 -92 59 -158 132 -228 72
-67 190 -137 207 -120 8 8 0 15 -28 27 -117 49 -203 128 -253 233 -30 62 -36
88 -40 155 -2 53 2 97 11 129 16 51 4 77 -14 30z"/>
<path d="M7867 4066 c-26 -7 -64 -26 -85 -43 -41 -33 -82 -104 -82 -143 0 -42
42 -112 87 -147 110 -83 316 -57 389 49 39 56 40 138 4 192 -62 92 -182 127
-313 92z"/>
<path d="M2250 3875 c-16 -19 -7 -83 19 -133 57 -111 171 -122 236 -24 33 50
51 141 31 160 -19 20 -46 8 -46 -20 0 -42 -21 -100 -46 -125 -51 -51 -125 -6
-139 86 -10 63 -31 85 -55 56z"/>
<path d="M3021 3876 c-16 -19 -6 -86 19 -136 28 -54 63 -82 112 -87 78 -8 137
49 159 155 9 46 8 57 -4 70 -20 20 -47 8 -47 -20 0 -42 -21 -100 -45 -124 -59
-59 -127 -9 -144 105 -7 49 -28 64 -50 37z"/>
<path d="M5094 3292 c-103 -51 -141 -83 -155 -135 -17 -59 -17 -206 -1 -235
19 -33 39 -13 47 49 4 27 11 49 17 49 5 0 23 -30 40 -67 121 -270 204 -417
253 -449 78 -51 113 115 81 385 -19 160 -61 351 -87 403 -18 36 -22 38 -67 38
-35 0 -69 -10 -128 -38z"/>
<path d="M4545 2965 c-39 -38 -31 -131 14 -154 16 -9 25 -6 47 12 37 32 39
105 4 142 -29 31 -35 31 -65 0z"/>
<path d="M3510 2922 c-45 -22 -60 -77 -39 -149 16 -58 100 -147 154 -162 74
-20 137 21 149 97 13 84 -64 189 -158 217 -62 19 -64 19 -106 -3z"/>
<path d="M2633 2866 c-88 -28 -165 -108 -178 -186 -14 -85 41 -176 139 -228
46 -24 62 -27 151 -27 84 0 107 4 146 23 88 44 148 126 149 203 0 88 -83 184
-188 215 -56 17 -163 17 -219 0z"/>
<path d="M8830 2691 c-71 -15 -138 -67 -160 -126 -33 -87 35 -190 147 -221 34
-9 64 -23 67 -30 3 -7 2 -38 -1 -69 l-6 -57 -46 7 c-136 20 -252 109 -287 218
-18 59 -34 74 -34 34 0 -38 58 -143 97 -178 21 -18 67 -46 103 -63 61 -29 72
-31 180 -31 103 0 121 3 170 26 66 31 120 76 161 135 33 48 34 54 16 54 -7 0
-20 -12 -29 -28 -48 -81 -156 -153 -250 -167 l-48 -7 0 70 0 70 33 7 c54 12
124 53 148 86 30 43 37 124 15 168 -42 80 -163 125 -276 102z"/>
<path d="M4500 2361 c0 -4 26 -12 58 -19 77 -17 229 -91 301 -147 144 -113
243 -277 297 -490 70 -278 11 -574 -190 -960 -108 -206 -216 -368 -413 -617
-51 -64 -93 -119 -93 -123 0 -3 318 -4 708 -3 l707 3 3 90 c7 204 -35 508
-103 746 -222 774 -688 1392 -1131 1502 -74 19 -144 27 -144 18z"/>
<path d="M7162 2225 c-107 -54 -219 -153 -272 -241 -61 -102 -84 -237 -59
-356 55 -269 393 -546 688 -566 77 -5 84 -4 78 12 -4 10 -10 30 -13 44 -3 15
-17 57 -30 95 -13 37 -21 67 -18 67 4 0 2 6 -4 13 -11 14 -88 264 -97 317 -3
19 -17 71 -30 115 -13 44 -50 185 -81 313 -32 127 -61 232 -65 232 -4 0 -48
-20 -97 -45z"/>
<path d="M1980 1792 c-88 -26 -186 -96 -216 -153 -35 -69 -3 -147 74 -182 59
-27 173 -29 247 -4 168 58 238 211 135 295 -46 38 -178 62 -240 44z"/>
<path d="M6175 465 l0 -465 247 0 247 0 8 58 c48 337 -98 629 -412 823 -43 27
-82 49 -85 49 -3 0 -5 -209 -5 -465z"/>
</g>
</svg>
