<?xml version="1.0" encoding="UTF-8" standalone="no"?><!-- Generator: Gravit.io --><svg xmlns="http://www.w3.org/2000/svg" xmlns:xlink="http://www.w3.org/1999/xlink" style="isolation:isolate" viewBox="0 0 750 500.001" width="750pt" height="500.001pt"><defs><clipPath id="_clipPath_5Y2PdGGfkS1yI9mKRBuWHReS3JYonNJS"><rect width="750" height="500.001"/></clipPath></defs><g clip-path="url(#_clipPath_5Y2PdGGfkS1yI9mKRBuWHReS3JYonNJS)"><clipPath id="_clipPath_4nWkHcmt2nEtXeBm8oaX9FdBJC6Fjqrg"><path d=" M 0 0 L 0 500.001 L 750 500.001 L 750 0 L 0 0 Z " fill="rgb(255,255,255)"/></clipPath><g clip-path="url(#_clipPath_4nWkHcmt2nEtXeBm8oaX9FdBJC6Fjqrg)"><clipPath id="_clipPath_JaRfU0Bau1YTuqKPN9pLyJ6QcdD6ukWC"><path d=" M 750 500 L 0 500 L 0 0 L 750 0 L 750 500 Z " fill="rgb(255,255,255)"/></clipPath><g clip-path="url(#_clipPath_JaRfU0Bau1YTuqKPN9pLyJ6QcdD6ukWC)"><path d=" M 389.122 223.713 C 385.3 223.713 382.2 220.613 382.2 216.791 C 382.2 212.966 385.3 209.866 389.122 209.866 C 392.946 209.866 396.046 212.966 396.046 216.791 C 396.046 220.613 392.946 223.713 389.122 223.713 Z " fill="rgb(62,146,189)"/><path d=" M 389.462 188.563 C 389.448 188.563 389.434 188.563 389.421 188.563 C 389.435 188.563 389.448 188.563 389.462 188.563 Z " fill="rgb(69,160,194)"/><path d=" M 392.329 196.866 C 388.505 196.866 385.405 193.766 385.405 189.943 C 385.405 189.579 385.458 189.227 385.513 188.879 C 386.79 188.691 388.089 188.563 389.421 188.563 L 389.421 188.563 C 389.434 188.563 389.448 188.563 389.462 188.563 C 392.902 188.568 396.181 189.243 399.204 190.428 C 398.95 194.021 395.987 196.866 392.329 196.866 Z " fill="rgb(62,146,189)"/><path d=" M 409.124 212.093 C 405.302 212.093 402.202 208.994 402.202 205.17 C 402.202 201.347 405.302 198.246 409.124 198.246 C 409.477 198.246 409.815 198.3 410.151 198.351 C 412.515 201.216 414.269 204.592 415.284 208.272 C 414.142 210.53 411.827 212.093 409.124 212.093 Z " fill="rgb(62,146,189)"/><path d=" M 404.788 237.42 C 401.63 236.778 399.253 233.985 399.253 230.637 C 399.253 226.813 402.353 223.713 406.177 223.713 C 409.302 223.713 411.913 225.797 412.775 228.643 C 410.794 232.131 408.06 235.131 404.788 237.42 Z " fill="rgb(62,146,189)"/><path d=" M 389.421 242.27 C 389.408 242.27 389.395 242.27 389.382 242.27 C 389.394 242.27 389.408 242.27 389.421 242.27 L 389.421 242.27 L 389.421 242.27 Z  M 389.351 242.27 C 389.348 242.27 389.346 242.27 389.343 242.27 C 389.346 242.27 389.348 242.27 389.351 242.27 Z " fill="rgb(69,160,194)"/><path d=" M 389.421 242.27 C 389.408 242.27 389.394 242.27 389.382 242.27 C 389.371 242.27 389.361 242.27 389.351 242.27 C 389.348 242.27 389.346 242.27 389.343 242.27 C 386.106 242.26 383.015 241.65 380.142 240.592 C 380.302 236.909 383.315 233.967 387.036 233.967 C 390.86 233.967 393.96 237.065 393.96 240.889 C 393.96 241.227 393.907 241.549 393.86 241.876 C 392.413 242.116 390.936 242.27 389.421 242.27 L 389.421 242.27 Z " fill="rgb(62,146,189)"/><path d=" M 341.968 41.004 C 341.955 41.004 341.942 41.004 341.929 41.004 C 341.942 41.004 341.956 41.004 341.968 41.004 L 341.968 41.004 L 341.968 41.004 Z  M 341.895 41.003 C 341.894 41.003 341.892 41.003 341.891 41.003 C 341.892 41.003 341.894 41.003 341.895 41.003 Z " fill="rgb(69,160,194)"/><path d=" M 711.943 421.66 C 708.699 421.66 705.998 419.424 705.246 416.413 C 706.883 413.106 709.166 410.179 711.955 407.816 C 715.773 407.823 718.865 410.919 718.865 414.738 C 718.865 418.562 715.766 421.66 711.943 421.66 Z " fill="rgb(62,146,189)"/><path d=" M 729.34 401.444 C 729.326 401.444 729.312 401.444 729.299 401.444 C 729.312 401.444 729.326 401.444 729.34 401.444 Z " fill="rgb(69,160,194)"/><path d=" M 729.299 455.152 C 729.286 455.152 729.273 455.152 729.26 455.152 C 729.272 455.152 729.286 455.152 729.299 455.152 L 729.299 455.152 L 729.299 455.152 Z  M 729.229 455.152 C 729.226 455.152 729.224 455.152 729.221 455.152 C 729.224 455.152 729.226 455.152 729.229 455.152 Z " fill="rgb(69,160,194)"/><path d=" M 709.596 445.929 C 709.4 445.929 709.217 445.888 709.025 445.873 C 706.512 442.976 704.609 439.541 703.518 435.758 C 704.684 433.581 706.951 432.083 709.596 432.083 C 713.418 432.083 716.519 435.183 716.519 439.008 C 716.519 442.83 713.418 445.929 709.596 445.929 Z " fill="rgb(62,146,189)"/><path d=" M 101.436 411.316 C 97.391 411.316 93.318 410.007 89.896 407.308 L 88.333 406.072 C 88.494 404.247 88.831 402.478 89.301 400.759 L 92.853 403.562 C 95.326 405.514 98.293 406.545 101.436 406.545 C 105.716 406.545 109.689 404.622 112.337 401.267 C 117.074 395.262 116.046 386.522 110.042 381.783 L 108.162 380.301 C 110.001 379.632 111.921 379.137 113.906 378.832 C 121.159 385.352 122.209 396.458 116.082 404.224 C 112.402 408.884 106.945 411.316 101.436 411.316 Z " fill="rgb(62,146,189)"/></g><path d=" M 129.701 238.877 C 127.983 214.605 132.625 181.177 136.652 180.672 C 140.458 180.199 155.547 203.221 162.064 213.476 C 154.508 215.162 147.998 220.206 142.224 225.137 C 137.495 229.275 133.246 233.852 129.701 238.877 Z " fill="rgb(250,151,0)"/><path d=" M 142.224 225.137 C 147.998 220.206 154.508 215.162 162.064 213.476 C 163.924 216.403 165.09 218.295 165.09 218.295 L 131.759 252.86 C 130.73 248.906 130.072 244.098 129.701 238.877 C 133.246 233.852 137.495 229.275 142.224 225.137 Z " fill="rgb(242,112,6)"/><path d=" M 217.816 238.877 C 217.446 244.098 216.788 248.906 215.758 252.86 L 182.427 218.295 C 182.427 218.295 183.593 216.403 185.454 213.476 C 193.009 215.162 199.518 220.206 205.294 225.137 C 210.022 229.275 214.272 233.852 217.816 238.877 Z " fill="rgb(242,112,6)"/><path d=" M 210.866 180.672 C 214.893 181.177 219.533 214.605 217.816 238.877 C 214.272 233.852 210.022 229.275 205.294 225.137 C 199.518 220.206 193.009 215.162 185.454 213.476 C 191.97 203.221 207.058 180.199 210.866 180.672 Z " fill="rgb(250,151,0)"/><path d=" M 189.269 367.753 C 172.755 375.704 154.136 371.245 137.351 364.956 L 140.324 314.951 L 205.541 310.361 C 208.919 316.63 212.209 323.071 215.405 329.624 C 211.833 345.407 204.271 360.393 189.269 367.753 Z " fill="rgb(242,112,6)"/><path d=" M 189.269 367.753 C 204.271 360.393 211.833 345.407 215.405 329.624 C 253.208 407.159 277.658 500 277.658 500 L 129.33 500 L 137.351 364.956 C 154.136 371.245 172.755 375.704 189.269 367.753 Z " fill="rgb(250,151,0)"/><path d=" M 135.695 181.393 C 144.542 190 145.41 205.069 143.687 217.378 C 142.071 227.979 136.957 236.353 130.111 243.449 C 127.581 220.863 131.671 186.742 135.695 181.393 Z " fill="rgb(254,184,172)"/><path d=" M 211.824 181.393 C 202.975 190 202.107 205.069 203.831 217.378 C 205.447 227.979 210.561 236.353 217.407 243.449 C 219.938 220.863 215.845 186.742 211.824 181.393 Z " fill="rgb(254,184,172)"/><path d=" M 173.758 366.947 C 210.675 366.947 217.592 302.716 220.345 271.824 C 223.098 240.931 200.77 214.625 173.758 214.625 C 146.748 214.625 124.419 240.931 127.172 271.824 C 129.925 302.716 136.843 366.947 173.758 366.947 Z " fill="rgb(255,243,219)"/><path d=" M 179.696 215.069 C 203.949 218.581 222.894 243.227 220.345 271.824 C 218.971 287.248 216.558 310.983 209.89 330.886 C 203.326 304.431 181.921 291.233 179.969 276.106 C 178.057 261.299 179.131 228.975 179.696 215.069 Z " fill="rgb(250,151,0)"/><path d=" M 167.822 215.069 C 168.385 228.975 169.459 261.299 167.548 276.106 C 165.595 291.233 144.191 304.431 137.627 330.886 C 130.959 310.983 128.545 287.248 127.172 271.824 C 124.625 243.227 143.568 218.581 167.822 215.069 Z " fill="rgb(250,151,0)"/><path d=" M 153.145 286.05 C 148.179 286.05 144.291 280.618 144.291 273.683 C 144.291 272.794 145.011 272.075 145.9 272.075 C 146.787 272.075 147.505 272.794 147.505 273.683 C 147.505 278.646 150.089 282.837 153.145 282.837 C 156.198 282.837 158.777 278.646 158.777 273.683 C 158.777 272.794 159.497 272.075 160.385 272.075 C 161.272 272.075 161.993 272.794 161.993 273.683 C 161.993 280.618 158.106 286.05 153.145 286.05 Z " fill="rgb(89,58,66)"/><path d=" M 198.298 286.05 C 193.334 286.05 189.447 280.618 189.447 273.683 C 189.447 272.794 190.166 272.075 191.053 272.075 C 191.943 272.075 192.662 272.794 192.662 273.683 C 192.662 278.646 195.243 282.837 198.298 282.837 C 201.351 282.837 203.932 278.646 203.932 273.683 C 203.932 272.794 204.651 272.075 205.539 272.075 C 206.427 272.075 207.146 272.794 207.146 273.683 C 207.146 280.618 203.26 286.05 198.298 286.05 Z " fill="rgb(89,58,66)"/><path d=" M 191.053 344.646 C 191.053 352.247 183.308 358.404 173.758 358.404 C 164.206 358.404 156.461 352.247 156.461 344.646 C 156.461 337.049 164.206 330.886 173.758 330.886 C 183.308 330.886 191.053 337.049 191.053 344.646 Z " fill="rgb(89,58,66)"/><path d=" M 167.82 333.259 C 164.159 334.202 161.287 336.907 159.965 340.42 C 159.039 342.882 162.977 343.937 163.891 341.499 C 164.705 339.327 166.696 337.758 168.904 337.191 C 171.447 336.536 170.366 332.608 167.82 333.259 Z " fill="rgb(147,97,112)"/><path d=" M 161.091 342.946 C 160.091 342.675 158.787 343.276 158.585 344.371 C 158.489 344.91 158.353 345.436 158.257 345.975 C 158.06 347.064 158.537 348.161 159.679 348.48 C 160.67 348.754 161.987 348.151 162.181 347.058 C 162.277 346.519 162.415 345.989 162.51 345.453 C 162.711 344.362 162.229 343.26 161.091 342.946 Z " fill="rgb(147,97,112)"/><path d=" M 151.316 441.26 C 154.912 422.484 172.889 346.181 201.653 386.13 C 214.436 403.708 220.428 426.479 225.223 446.854 C 229.414 464.261 232.295 482.185 234.723 500 L 144.086 500 C 145.713 480.309 147.732 460.674 151.316 441.26 Z " fill="rgb(255,243,219)"/><path d=" M 655.286 257.841 C 655.854 258.269 658.972 269.087 660.847 275.742 L 645.302 280.875 L 645.302 271.415 C 645.302 271.415 654.464 257.223 655.286 257.841 Z " fill="rgb(254,184,172)"/><path d=" M 624.849 266.849 C 626.495 263.147 649.321 244.885 656.728 246.119 C 664.134 247.352 668.347 273.266 668.347 273.266 L 660.847 275.742 C 658.972 269.087 655.854 258.269 655.286 257.841 C 654.464 257.223 645.302 271.415 645.302 271.415 C 645.302 271.415 632.253 287.045 630.401 287.663 C 628.552 288.278 623.202 270.55 624.849 266.849 Z " fill="rgb(53,35,40)"/><path d=" M 699.915 237.892 C 699.298 236.659 686.528 233.985 686.528 233.985 C 686.528 233.985 680.36 232.958 679.948 231.927 C 679.538 230.9 687.757 223.737 693.175 223.83 C 705.071 229.51 723.567 258.869 710.61 316.866 L 705.929 310.832 C 714.034 261.245 699.915 237.892 699.915 237.892 Z " fill="rgb(53,35,40)"/><path d=" M 686.528 233.985 C 686.528 233.985 699.298 236.659 699.915 237.892 C 699.915 237.892 714.034 261.245 705.929 310.832 L 677.909 274.706 L 686.528 233.985 Z " fill="rgb(254,184,172)"/><path d=" M 590.343 316.689 C 593.272 303.219 629.583 296.776 629.583 296.776 C 652.423 255.194 689.905 265.734 707.476 296.776 C 725.046 327.815 730.317 500 730.317 500 L 653.913 500 L 622.794 500 L 644.593 349.768 C 593.796 348.944 587.415 330.16 590.343 316.689 Z " fill="rgb(89,58,66)"/><path d=" M 682.894 500 L 622.794 500 L 644.593 349.768 C 644.593 349.768 652.276 350.7 662.56 349.949 C 662.56 349.949 677.448 461.579 682.894 500 Z " fill="rgb(53,35,40)"/><path d=" M 656.728 297.895 C 656.728 307.294 662.806 314.913 670.302 314.913 C 677.798 314.913 683.874 307.294 683.874 297.895 C 683.874 288.494 677.798 280.875 670.302 280.875 C 662.806 280.875 656.728 288.494 656.728 297.895 Z " fill="rgb(53,35,40)"/><path d=" M 664.749 297.896 C 664.749 300.848 666.36 303.241 668.347 303.241 C 670.335 303.241 671.946 300.848 671.946 297.896 C 671.946 294.941 670.335 292.547 668.347 292.547 C 666.36 292.547 664.749 294.941 664.749 297.896 Z " fill="rgb(25,17,19)"/><path d=" M 641.704 296.918 C 641.704 299.87 643.313 302.263 645.302 302.263 C 647.29 302.263 648.901 299.87 648.901 296.918 C 648.901 293.963 647.29 291.568 645.302 291.568 C 643.313 291.568 641.704 293.963 641.704 296.918 Z " fill="rgb(25,17,19)"/><path d=" M 588.653 314.913 C 588.653 320.877 594.731 325.712 602.226 325.712 C 609.724 325.712 615.8 320.877 615.8 314.913 C 615.8 308.948 609.724 304.115 602.226 304.115 C 594.731 304.115 588.653 308.948 588.653 314.913 Z " fill="rgb(25,17,19)"/><path d=" M 606.253 305.978 C 609.126 306.717 611.384 308.84 612.419 311.595 C 613.146 313.527 610.056 314.354 609.337 312.443 C 608.696 310.74 607.136 309.506 605.403 309.061 C 603.409 308.547 604.255 305.465 606.253 305.978 Z " fill="rgb(89,58,66)"/><path d=" M 611.536 313.58 C 612.317 313.365 613.345 313.839 613.501 314.696 C 613.577 315.119 613.685 315.533 613.761 315.956 C 613.913 316.812 613.542 317.673 612.644 317.921 C 611.864 318.135 610.831 317.663 610.679 316.804 C 610.604 316.383 610.495 315.968 610.419 315.547 C 610.265 314.69 610.64 313.827 611.536 313.58 Z " fill="rgb(89,58,66)"/><path d=" M 648.476 331.175 C 648.476 331.175 666.187 339.696 661.868 350.183 C 657.55 360.671 635.448 339.229 635.448 339.229 C 635.448 339.229 641.663 337.931 648.476 331.175 Z " fill="rgb(254,184,172)"/><path d=" M 653.177 346.428 C 649.835 342.871 645.792 339.685 641.47 337.396 C 640.56 336.914 641.366 335.535 642.276 336.017 C 646.698 338.358 650.886 341.656 654.308 345.299 C 655.011 346.048 653.884 347.18 653.177 346.428 Z " fill="rgb(252,134,134)"/><path d=" M 653.591 323.246 C 651.423 330.132 646.794 334.994 640.374 338.155 C 631.624 342.465 623.161 341.399 614.149 338.614 C 613.167 338.311 613.587 336.768 614.573 337.072 C 622.593 339.552 629.774 340.607 637.808 337.543 C 644.64 334.934 649.845 329.825 652.05 322.823 C 652.358 321.845 653.901 322.264 653.591 323.246 Z " fill="rgb(53,35,40)"/><path d=" M 495.163 316 C 492.681 318.676 490.335 321.398 488.239 324.27 C 491.079 294.714 501.569 276.075 505.337 276.069 C 510.03 276.061 514.634 293.58 517.003 304.254 C 508.101 305.455 501.808 308.954 495.163 316 Z " fill="rgb(250,151,0)"/><path d=" M 495.163 316 C 501.808 308.954 508.101 305.455 517.003 304.254 C 518.04 308.923 518.651 312.289 518.651 312.289 L 487.614 333.924 C 487.728 330.59 487.942 327.371 488.239 324.27 C 490.335 321.398 492.681 318.676 495.163 316 Z " fill="rgb(255,116,12)"/><path d=" M 581.8 326.847 C 581.981 329.146 582.12 331.503 582.202 333.924 L 551.163 312.289 C 551.163 312.289 551.718 309.243 552.665 304.925 C 558.563 306.753 564.366 310.619 569.007 313.714 C 573.97 317.237 578.349 321.778 581.8 326.847 Z " fill="rgb(255,116,12)"/><path d=" M 564.481 276.069 C 568.356 276.078 579.343 295.805 581.8 326.847 C 578.349 321.778 573.97 317.237 569.007 313.714 C 564.366 310.619 558.563 306.753 552.665 304.925 C 554.985 294.336 559.687 276.061 564.481 276.069 Z " fill="rgb(250,151,0)"/><path d=" M 505.337 284.06 C 506.819 283.79 513.772 310.693 512.085 312.823 C 510.396 314.953 494.95 327.181 494.151 325.33 C 493.353 323.475 502.407 284.593 505.337 284.06 Z " fill="rgb(254,184,172)"/><path d=" M 564.481 284.06 C 562.999 283.79 556.044 310.693 557.733 312.823 C 559.421 314.953 574.866 327.181 575.667 325.33 C 576.466 323.475 567.409 284.593 564.481 284.06 Z " fill="rgb(254,184,172)"/><path d=" M 493.11 500 C 493.11 500 472.733 397.598 481.093 353.709 C 489.452 309.821 522.368 305.12 534.909 305.12 C 547.448 305.12 580.364 309.821 588.724 353.709 C 597.083 397.598 576.706 500 576.706 500 L 493.11 500 Z " fill="rgb(255,243,219)"/><path d=" M 536.813 305.158 C 550.491 305.649 580.755 311.878 588.724 353.709 C 597.083 397.598 576.706 500 576.706 500 L 574.224 500 C 593.952 432.416 590.593 347.518 536.813 305.158 Z " fill="rgb(255,249,238)"/><path d=" M 539.321 347.428 C 533.833 334.396 537.546 311.49 533.825 311.49 C 530.104 311.49 533.815 334.396 528.329 347.428 C 524.085 357.508 496.886 346.117 484.771 340.437 C 496.573 308.854 523.771 305.12 534.909 305.12 C 545.944 305.12 572.753 308.774 584.726 339.561 C 573.804 344.812 543.796 358.055 539.321 347.428 Z " fill="rgb(250,151,0)"/><path d=" M 479.2 388.473 C 482.519 400.349 487.763 411.792 494.151 422.816 C 506.935 444.922 522.114 465.43 528.507 490.464 C 529.196 493.05 530.134 496.394 530.921 500 L 493.11 500 C 493.11 500 480.546 436.846 479.2 388.473 Z " fill="rgb(250,151,0)"/><path d=" M 575.667 422.816 C 582.056 411.792 587.3 400.349 590.618 388.473 C 589.271 436.846 576.706 500 576.706 500 L 538.896 500 C 539.683 496.394 540.62 493.05 541.31 490.464 C 547.702 465.43 562.882 444.922 575.667 422.816 Z " fill="rgb(250,151,0)"/><path d=" M 536.812 305.155 C 548.769 305.589 573.39 310.417 584.726 339.561 C 581.114 341.297 575.417 343.903 569.249 346.233 C 561.587 330.328 550.935 316.277 536.812 305.155 Z " fill="rgb(255,158,16)"/><path d=" M 576.706 500 L 574.224 500 C 582.937 470.153 587.14 436.935 584.495 405.487 C 586.929 399.916 589.005 394.246 590.618 388.473 C 589.271 436.846 576.706 500 576.706 500 Z " fill="rgb(255,158,16)"/><path d=" M 544.854 338.711 C 545.464 338.711 545.956 338.218 545.956 337.609 C 545.956 334.209 547.724 331.338 549.815 331.338 C 551.909 331.338 553.677 334.209 553.677 337.609 C 553.677 338.218 554.169 338.711 554.778 338.711 C 555.388 338.711 555.88 338.218 555.88 337.609 C 555.88 332.858 553.216 329.136 549.815 329.136 C 546.417 329.136 543.751 332.858 543.751 337.609 C 543.751 338.218 544.245 338.711 544.854 338.711 Z " fill="rgb(89,58,66)"/><path d=" M 515.245 338.711 C 515.854 338.711 516.349 338.218 516.349 337.609 C 516.349 334.209 518.116 331.338 520.208 331.338 C 522.3 331.338 524.067 334.209 524.067 337.609 C 524.067 338.218 524.56 338.711 525.171 338.711 C 525.778 338.711 526.272 338.218 526.272 337.609 C 526.272 332.858 523.608 329.136 520.208 329.136 C 516.808 329.136 514.144 332.858 514.144 337.609 C 514.144 338.218 514.636 338.711 515.245 338.711 Z " fill="rgb(89,58,66)"/><path d=" M 554.767 360.815 C 549.901 369.43 541.819 373.581 531.997 373.108 C 522.413 372.65 512.657 366.108 511.313 356.112 C 511.179 355.105 512.718 354.67 512.854 355.688 C 514.208 365.745 523.802 371.118 533.151 371.568 C 541.917 371.988 549.14 367.529 553.388 360.01 C 553.894 359.112 555.276 359.918 554.767 360.815 Z " fill="rgb(89,58,66)"/><path d=" M 533.294 372.18 C 533.272 367.995 533.759 363.798 533.054 359.643 C 532.884 358.636 534.423 358.204 534.595 359.22 C 535.325 363.526 534.868 367.839 534.892 372.18 C 534.897 373.211 533.3 373.21 533.294 372.18 Z " fill="rgb(89,58,66)"/><path d=" M 520.362 352.618 C 520.362 358.58 526.44 363.415 533.937 363.415 C 541.433 363.415 547.511 358.58 547.511 352.618 C 547.511 346.653 541.433 341.819 533.937 341.819 C 526.44 341.819 520.362 346.653 520.362 352.618 Z " fill="rgb(89,58,66)"/><path d=" M 538.595 343.684 C 541.47 344.421 543.726 346.544 544.761 349.299 C 545.487 351.233 542.399 352.059 541.679 350.148 C 541.038 348.446 539.479 347.21 537.747 346.765 C 535.751 346.253 536.599 343.169 538.595 343.684 Z " fill="rgb(147,97,112)"/><path d=" M 543.878 351.286 C 544.661 351.071 545.688 351.543 545.843 352.401 C 545.921 352.823 546.028 353.238 546.103 353.659 C 546.255 354.517 545.884 355.378 544.985 355.625 C 544.206 355.841 543.173 355.368 543.021 354.507 C 542.946 354.087 542.839 353.672 542.763 353.249 C 542.606 352.396 542.983 351.532 543.878 351.286 Z " fill="rgb(147,97,112)"/><path d=" M 440.05 209.247 C 446.048 210.378 451.472 175.614 465.917 171.604 C 480.368 167.596 504.942 162.351 495.751 153.95 C 486.563 145.554 450.067 141.837 440.933 155.196 C 431.798 168.563 425.974 206.594 440.05 209.247 Z " fill="rgb(53,35,40)"/><path d=" M 440.933 155.196 C 450.067 141.837 486.563 145.554 495.751 153.95 C 497.997 156.002 498.216 157.866 497.069 159.57 C 494.421 159.474 491.745 159.558 489.009 159.899 C 470.474 161.584 443.628 174.511 431.622 191.258 C 431.54 178.683 435.687 162.875 440.933 155.196 Z " fill="rgb(89,58,66)"/><path d=" M 409.089 273.053 C 416.757 279.568 428.919 284.021 428.919 284.021 C 427.636 321.293 437.114 366.378 448.347 405.697 C 395.431 337.675 409.089 273.053 409.089 273.053 Z " fill="rgb(239,220,189)"/><path d=" M 373.054 242.386 C 379.187 211.332 389.919 180.667 428.802 187.951 C 467.687 195.235 464.292 234.337 463.142 234.337 C 461.991 234.337 503.009 278.806 481.294 291.839 C 459.577 304.872 428.919 284.021 428.919 284.021 C 428.919 284.021 416.757 279.568 409.089 273.053 C 409.089 273.053 395.431 337.675 448.347 405.697 C 463.272 457.94 481.294 500 481.294 500 L 346.218 500 C 342.767 409.529 366.726 274.411 373.054 242.386 Z " fill="rgb(255,243,219)"/><path d=" M 410.892 256.538 C 410.892 256.538 393.251 251.436 389.72 261.429 C 386.194 271.425 414.944 270.264 414.944 270.264 C 414.944 270.264 411.425 265.485 410.892 256.538 Z " fill="rgb(254,184,172)"/><path d=" M 493.485 272.564 C 493.485 279.022 486.903 284.256 478.788 284.256 C 470.671 284.256 464.091 279.022 464.091 272.564 C 464.091 266.107 470.671 260.872 478.788 260.872 C 486.903 260.872 493.485 266.107 493.485 272.564 Z " fill="rgb(89,58,66)"/><path d=" M 433.103 241.032 C 437.319 241.032 440.622 236.414 440.622 230.521 C 440.622 229.767 440.011 229.154 439.257 229.154 C 438.503 229.154 437.892 229.767 437.892 230.521 C 437.892 234.737 435.698 238.297 433.103 238.297 C 430.507 238.297 428.313 234.737 428.313 230.521 C 428.313 229.767 427.702 229.154 426.948 229.154 C 426.192 229.154 425.583 229.767 425.583 230.521 C 425.583 236.414 428.886 241.032 433.103 241.032 Z " fill="rgb(89,58,66)"/><path d=" M 457.938 241.032 C 462.155 241.032 465.458 236.414 465.458 230.521 C 465.458 229.767 464.845 229.154 464.091 229.154 C 463.337 229.154 462.726 229.767 462.726 230.521 C 462.726 234.737 460.532 238.297 457.938 238.297 C 455.341 238.297 453.147 234.737 453.147 230.521 C 453.147 229.767 452.536 229.154 451.78 229.154 C 451.026 229.154 450.415 229.767 450.415 230.521 C 450.415 236.414 453.718 241.032 457.938 241.032 Z " fill="rgb(89,58,66)"/><path d=" M 398.075 262.737 C 402.767 262.35 407.649 262.704 412.241 263.78 C 413.179 264 412.78 265.44 411.843 265.221 C 407.372 264.17 402.649 263.853 398.075 264.229 C 397.114 264.308 397.122 262.814 398.075 262.737 Z " fill="rgb(252,134,134)"/><path d=" M 473.743 262.888 C 470.632 263.689 468.188 265.988 467.065 268.973 C 466.282 271.063 469.626 271.96 470.403 269.892 C 471.097 268.044 472.786 266.71 474.663 266.23 C 476.825 265.672 475.905 262.334 473.743 262.888 Z " fill="rgb(147,97,112)"/><path d=" M 468.024 271.119 C 467.177 270.89 466.065 271.4 465.896 272.33 C 465.813 272.788 465.698 273.235 465.614 273.693 C 465.448 274.618 465.853 275.553 466.823 275.823 C 467.667 276.055 468.786 275.542 468.95 274.612 C 469.032 274.155 469.149 273.706 469.229 273.249 C 469.401 272.324 468.989 271.388 468.024 271.119 Z " fill="rgb(147,97,112)"/><path d=" M 402.183 210.087 C 407.997 208.228 399.417 174.091 410.22 163.694 C 421.021 153.293 436.96 137.97 424.882 134.952 C 412.806 131.936 378.931 146.021 377.251 162.12 C 375.575 178.221 388.54 214.447 402.183 210.087 Z " fill="rgb(53,35,40)"/><path d=" M 412.702 402.622 C 410.271 384.985 423.192 372.177 438.493 367.039 C 441.413 380.215 444.79 393.246 448.347 405.697 C 451.61 417.121 455.022 428.058 458.36 438.175 C 438.845 439.367 414.999 420.997 412.702 402.622 Z " fill="rgb(89,58,66)"/><path d=" M 378.976 275.303 C 375.862 288.792 371.147 300.673 362.091 306.061 C 366.611 276.641 370.875 253.408 373.054 242.386 C 374.149 236.834 375.398 231.3 376.923 225.989 C 387.015 240.956 384.331 253.877 378.976 275.303 Z " fill="rgb(89,58,66)"/><path d=" M 403.501 500 L 346.218 500 C 345.473 480.466 346.009 458.847 347.364 436.637 C 354.48 437.738 362.016 440.119 369.702 443.094 C 395.175 453.284 409.321 474.786 403.501 500 Z " fill="rgb(89,58,66)"/><path d=" M 413.581 248.539 C 410.3 255.944 411.774 263.195 415.671 270.025 C 419.06 275.957 424.888 279.049 430.872 281.793 C 431.745 282.192 430.985 283.48 430.118 283.081 C 423.2 279.909 417.567 276.358 413.722 269.617 C 409.798 262.744 409.077 255.043 412.294 247.786 C 412.683 246.907 413.97 247.668 413.581 248.539 Z " fill="rgb(89,58,66)"/><path d=" M 438.493 367.039 L 438.497 367.057 C 439.194 370.202 439.917 373.334 440.665 376.457 C 440.804 377.038 440.948 377.615 441.089 378.195 C 441.675 380.623 442.274 383.041 442.886 385.447 C 443.108 386.324 443.331 387.195 443.558 388.069 C 444.122 390.253 444.694 392.422 445.274 394.581 C 445.499 395.419 445.724 396.26 445.952 397.093 C 446.739 399.985 447.536 402.86 448.347 405.697 C 439.616 394.474 432.706 383.343 427.241 372.578 C 430.677 370.245 434.501 368.377 438.493 367.039 Z " fill="rgb(53,35,40)"/><path d=" M 377.251 162.12 C 378.931 146.021 412.806 131.936 424.882 134.952 C 428.351 135.82 429.501 137.704 429.132 140.191 C 418.618 146.267 408.757 153.603 401.251 163.064 C 388.944 178.834 392.011 194.604 399.042 210.374 C 386.626 208.946 375.704 176.979 377.251 162.12 Z " fill="rgb(89,58,66)"/><path d=" M 374.658 500 C 374.658 500 381.353 390.846 349.946 338.845 C 318.538 286.843 281.466 305.893 267.049 327.517 C 267.049 327.517 245.94 341.417 225.862 340.903 C 225.862 340.903 235.127 377.976 275.291 361.499 C 275.291 361.499 309.785 364.071 316.478 405.263 C 323.172 446.453 273.746 500 273.746 500 L 374.658 500 Z " fill="rgb(255,116,12)"/><path d=" M 266.013 328.167 L 266.013 328.167 C 285.254 341.068 275.291 361.499 275.291 361.499 C 235.127 377.976 225.862 340.903 225.862 340.903 C 243.323 341.35 261.551 330.901 266.013 328.167 Z " fill="rgb(255,243,219)"/><path d=" M 338.502 417.782 C 355.981 453.416 358.125 482.338 356.972 500 L 273.746 500 C 273.746 500 323.172 446.453 316.478 405.263 C 309.785 364.071 275.291 361.499 275.291 361.499 C 275.291 361.499 308.997 357.637 338.502 417.782 Z " fill="rgb(237,71,20)"/><path d=" M 219.383 342.813 C 223.477 347.22 229.278 348.489 232.339 345.646 C 235.401 342.801 234.563 336.924 230.469 332.518 C 226.376 328.112 220.579 326.843 217.515 329.687 C 214.454 332.531 215.292 338.408 219.383 342.813 Z " fill="rgb(89,58,66)"/><path d=" M 303.048 313.045 C 303.905 310.472 317.319 303.034 321.205 305.22 C 325.09 307.403 331.688 345.083 326.591 352.607 C 321.494 360.131 308.386 325.181 306.446 322.753 C 304.504 320.326 305.233 330.762 303.048 329.548 C 300.863 328.337 301.106 318.868 303.048 313.045 Z " fill="rgb(89,58,66)"/><path d=" M 277.869 330.29 C 277.869 333.12 279.31 335.416 281.092 335.416 C 282.871 335.416 284.313 333.12 284.313 330.29 C 284.313 327.457 282.871 325.164 281.092 325.164 C 279.31 325.164 277.869 327.457 277.869 330.29 Z " fill="rgb(89,58,66)"/><path d=" M 269.536 343.555 C 272.213 349.628 271.87 358.304 263.91 359.588 C 262.585 359.8 262.019 357.78 263.35 357.565 C 269.851 356.518 269.898 349.543 267.726 344.612 C 267.186 343.388 268.992 342.318 269.536 343.555 Z " fill="rgb(89,58,66)"/><path d=" M 224.683 329.623 C 225.609 330.143 226.458 330.716 227.202 331.479 C 229.1 333.418 225.994 336.235 224.104 334.305 C 223.616 333.806 223.004 333.481 222.4 333.143 C 220.041 331.818 222.331 328.303 224.683 329.623 Z " fill="rgb(147,97,112)"/><path d=" M 230.279 334.062 C 230.929 334.583 231.388 335.087 231.849 335.785 C 232.478 336.74 231.901 338.124 230.964 338.615 C 229.876 339.188 228.761 338.684 228.134 337.731 L 227.996 337.581 C 227.104 336.866 226.705 335.711 227.376 334.679 C 227.953 333.795 229.383 333.346 230.279 334.062 Z " fill="rgb(147,97,112)"/><path d=" M 104.574 374.146 C 104.574 374.146 105.455 364.372 108.539 355.636 C 110.972 358.313 113.635 360.785 116.559 362.92 L 110.283 372.56 L 104.574 374.146 Z " fill="rgb(239,220,189)"/><path d=" M 108.539 355.636 C 109.461 353.021 110.58 350.497 111.934 348.357 C 112.42 347.591 112.994 346.866 113.628 346.177 C 113.439 344.598 113.559 342.837 114.387 341.641 C 114.871 340.854 115.749 340.313 116.497 341.068 C 117.075 341.66 117.001 342.593 116.898 343.355 L 116.98 343.3 C 117.66 340.963 117.877 338.119 119.565 336.297 C 120.321 335.549 121.226 335.435 121.724 336.477 C 122.343 337.725 121.766 339.536 121.476 340.791 C 122.274 339.878 126.3 335.043 127.835 334.674 C 129.211 334.367 129.077 335.558 128.654 336.497 C 128.223 337.488 127.495 338.336 126.705 339.122 C 133.466 337.567 140.052 338.503 141.609 342.536 C 144.806 350.819 121.671 355.068 121.671 355.068 L 116.559 362.92 C 113.635 360.785 110.972 358.313 108.539 355.636 Z " fill="rgb(255,243,219)"/><path d=" M 81.059 360.937 C 81.059 360.937 86.99 348.777 89.956 350.557 C 92.919 352.335 87.584 360.937 87.584 360.937 C 87.584 360.937 100.333 351.862 102.112 355.656 C 103.892 359.454 94.402 364.494 94.402 364.494 C 94.402 364.494 114.864 368.644 119.904 370.425 C 124.944 372.203 132.356 378.134 123.166 382.285 L 120.498 396.22 C 120.498 396.22 144.513 392.663 147.183 405.116 C 149.851 417.568 144.811 425.278 142.439 425.278 C 140.067 425.278 138.289 421.721 138.289 421.721 C 138.289 421.721 139.548 432.464 135.021 433.664 C 132.007 434.463 130.282 427.947 130.282 427.947 C 130.282 427.947 128.476 440.302 123.46 440.104 C 120.794 440.001 119.841 432.409 119.841 432.409 C 119.841 432.409 112.49 442.179 108.341 440.104 C 104.189 438.029 97.664 427.947 97.664 427.947 C 97.664 427.947 107.153 450.78 105.969 460.861 C 104.78 470.942 100.629 471.236 97.072 467.681 C 97.072 467.681 98.852 485.471 92.328 500 L 19.682 500 C 19.682 500 65.935 383.767 70.68 370.721 C 70.68 370.721 67.636 353.129 72.757 351.743 C 77.797 350.378 81.059 360.937 81.059 360.937 Z " fill="rgb(255,243,219)"/><path d=" M 80.444 489.234 C 81.285 481.112 79.044 459.825 92.489 465.146 C 90.807 459.265 86.326 445.819 97.25 449.46 C 94.729 444.979 84.925 428.453 89.967 423.972 C 93.535 420.763 98.462 427.655 102.006 433.958 C 99.587 430.914 97.664 427.947 97.664 427.947 C 97.664 427.947 107.153 450.78 105.969 460.861 C 104.78 470.942 100.629 471.236 97.072 467.681 C 97.072 467.681 98.852 485.471 92.328 500 L 56.252 500 C 56.877 496.593 58.125 493.374 60.277 490.635 C 65.039 484.474 75.123 483.071 80.444 489.234 Z " fill="rgb(239,220,189)"/><path d=" M 138.341 343.856 C 136.974 348.538 121.095 352.851 121.095 352.851 L 107.3 371.34 C 107.3 371.34 114.642 350.325 115.955 348.252 C 117.267 346.176 140.057 337.989 138.341 343.856 Z " fill="rgb(254,184,172)"/><path d=" M 55.508 347.08 C 56.334 347.144 56.89 347.896 57.317 348.538 L 57.342 348.442 C 56.313 346.233 54.605 343.955 54.674 341.471 C 54.752 340.411 55.357 339.729 56.418 340.183 C 57.708 340.713 58.465 342.458 59.072 343.594 C 59.072 342.38 58.919 336.091 59.829 334.802 C 60.663 333.664 61.347 334.65 61.648 335.635 C 61.976 336.664 61.986 337.782 61.909 338.896 C 65.972 333.271 71.547 329.638 75.372 331.647 C 83.231 335.773 68.623 354.206 68.623 354.206 L 71.571 374.87 L 68.321 379.827 C 68.321 379.827 58.566 366.425 56.876 355.569 C 56.734 354.673 56.691 353.75 56.715 352.816 C 55.531 351.75 54.463 350.347 54.295 348.899 C 54.145 347.989 54.447 347.005 55.508 347.08 Z " fill="rgb(255,243,219)"/><path d=" M 73.786 334.795 C 75.837 339.217 66.728 352.917 66.728 352.917 L 69.684 374.901 C 69.684 374.901 60.21 355.27 59.831 352.843 C 59.453 350.416 71.21 329.247 73.786 334.795 Z " fill="rgb(254,184,172)"/><path d=" M 99.798 386.856 C 99.257 387.747 98.491 388.277 97.525 388.432 C 94.795 388.896 91.91 386.15 88.952 380.237 C 88.809 379.952 88.924 379.604 89.21 379.463 C 89.494 379.315 89.841 379.433 89.985 379.722 C 93.353 386.455 95.857 387.546 97.336 387.293 C 97.966 387.191 98.449 386.853 98.811 386.257 C 99.854 384.538 99.591 381.175 99.002 379.405 C 98.918 379.153 99.016 378.877 99.239 378.736 C 99.459 378.594 99.751 378.622 99.946 378.803 C 101.273 380.053 102.446 381.557 103.532 383.396 C 103.714 383.701 103.899 384.022 104.088 384.353 C 105.047 386.024 106.132 387.919 107.709 388.796 C 108.257 389.094 108.776 389.153 109.246 388.963 C 109.809 388.736 110.273 388.161 110.524 387.369 C 111.099 385.714 110.519 383.929 109.96 382.204 L 109.839 381.823 C 109.761 381.579 109.853 381.311 110.068 381.167 C 110.278 381.024 110.561 381.038 110.761 381.205 C 111.089 381.481 111.42 381.768 111.752 382.056 C 113.291 383.391 114.882 384.769 116.708 385.417 C 117.601 385.708 118.254 385.687 118.645 385.353 C 119.227 384.86 119.409 383.567 119.141 381.809 C 119.093 381.495 119.311 381.2 119.627 381.152 C 119.936 381.095 120.236 381.323 120.284 381.638 C 120.519 383.19 120.556 385.249 119.393 386.234 C 118.672 386.845 117.65 386.938 116.335 386.512 C 114.515 385.864 112.988 384.645 111.533 383.395 C 111.914 384.792 112.125 386.277 111.622 387.733 C 111.269 388.841 110.558 389.679 109.676 390.034 C 109.356 390.163 109.023 390.228 108.683 390.228 C 108.181 390.228 107.667 390.087 107.152 389.808 C 105.291 388.772 104.119 386.729 103.085 384.929 C 102.902 384.602 102.72 384.288 102.541 383.986 C 101.909 382.921 101.25 381.975 100.55 381.134 C 100.794 383.045 100.7 385.371 99.798 386.856 Z " fill="rgb(239,220,189)"/><path d=" M 88.522 401.232 C 88.59 400.921 88.89 400.735 89.21 400.791 C 89.521 400.858 89.719 401.166 89.653 401.478 C 89.324 402.987 89.397 404.61 89.873 406.43 C 90.84 409.913 91.887 410.679 92.574 410.707 C 93.96 410.707 94.4 407.85 94.504 406.958 C 94.691 405.646 94.542 404.431 94.058 403.338 C 93.937 403.111 93.843 402.925 93.79 402.798 C 93.667 402.516 93.787 402.188 94.063 402.05 C 94.34 401.913 94.675 402.019 94.824 402.286 C 94.931 402.481 95.03 402.681 95.12 402.882 C 95.743 404.021 96.924 405.613 97.9 405.921 C 98.158 406.002 98.368 405.983 98.574 405.858 C 98.815 405.717 98.937 405.532 98.972 405.256 C 99.15 403.878 97.112 401.172 96.034 400.096 C 95.807 399.869 95.807 399.505 96.032 399.28 C 96.257 399.052 96.624 399.053 96.848 399.277 C 96.885 399.314 100.429 402.977 100.12 405.402 C 100.037 406.032 99.706 406.535 99.166 406.85 C 98.686 407.143 98.127 407.204 97.553 407.022 C 96.901 406.817 96.282 406.321 95.738 405.736 C 95.745 406.183 95.715 406.64 95.65 407.105 C 95.293 410.171 94.202 411.862 92.552 411.862 L 92.551 411.862 C 90.156 411.766 89.104 407.983 88.756 406.731 C 88.233 404.723 88.156 402.924 88.522 401.232 Z " fill="rgb(239,220,189)"/><path d=" M 66.134 452.087 C 66.429 452.211 66.568 452.55 66.446 452.843 C 65.907 454.137 66.202 456.748 67.099 458.664 C 67.628 459.789 68.293 460.522 68.947 460.726 C 69.769 460.946 70.48 460.749 71.123 460.136 C 72.577 458.746 73.248 455.538 72.855 453.706 C 72.79 453.396 72.984 453.092 73.289 453.022 C 73.6 452.944 73.904 453.139 73.981 453.444 C 74.776 456.625 76.164 459.552 76.891 459.584 L 76.899 459.584 C 77.063 459.584 77.453 459.255 77.877 458.021 C 79.181 454.112 79.181 448.437 77.877 444.525 C 77.791 444.266 77.9 443.979 78.139 443.842 C 78.378 443.704 78.678 443.756 78.862 443.962 C 80.381 445.702 83.378 448.286 84.997 446.973 C 85.493 446.576 85.742 446.053 85.759 445.376 C 85.817 443.106 83.226 439.802 81.892 438.616 C 81.654 438.405 81.633 438.04 81.844 437.802 C 82.055 437.563 82.421 437.544 82.66 437.753 C 84.022 438.964 86.988 442.573 86.914 445.405 C 86.888 446.429 86.484 447.261 85.722 447.869 C 83.806 449.438 81.211 447.757 79.535 446.271 C 80.335 450.168 80.148 454.865 78.972 458.393 C 78.769 458.978 78.163 460.74 76.901 460.74 L 76.842 460.737 C 75.623 460.685 74.594 458.794 73.881 456.96 C 73.57 458.471 72.931 460.004 71.921 460.971 C 71.233 461.626 70.438 461.962 69.573 461.962 C 69.266 461.962 68.952 461.92 68.631 461.837 C 67.623 461.526 66.733 460.599 66.054 459.154 C 65.001 456.91 64.71 454.005 65.378 452.4 C 65.503 452.104 65.845 451.969 66.134 452.087 Z " fill="rgb(239,220,189)"/><path d=" M 57.249 419.662 C 57.485 419.449 57.851 419.465 58.064 419.701 C 58.279 419.936 58.261 420.301 58.025 420.516 C 56.037 422.322 54.878 425.484 56.354 427.621 C 56.937 428.346 57.668 428.702 58.392 428.646 C 59.181 428.575 59.913 428.022 60.401 427.127 C 60.527 426.895 60.795 426.783 61.048 426.842 C 61.305 426.908 61.486 427.141 61.486 427.403 C 61.486 430.227 62.019 432.753 62.644 433.021 C 62.982 433.144 63.171 433.07 63.281 433.001 C 64.101 432.506 64.405 430.272 64.535 429.318 L 64.572 429.055 C 64.616 428.738 64.887 428.516 65.225 428.564 C 65.539 428.608 65.759 428.902 65.714 429.217 L 65.679 429.475 C 65.502 430.78 65.172 433.21 63.878 433.99 C 63.668 434.118 63.368 434.238 62.982 434.238 C 62.757 434.238 62.502 434.197 62.22 434.095 C 60.917 433.535 60.506 430.872 60.381 428.975 C 59.828 429.45 59.181 429.734 58.494 429.796 C 57.351 429.889 56.281 429.377 55.428 428.31 C 53.499 425.521 54.924 421.772 57.249 419.662 Z " fill="rgb(239,220,189)"/><path d=" M 70.487 402.891 C 70.118 403.092 69.731 403.192 69.337 403.192 C 68.947 403.192 68.55 403.093 68.156 402.896 C 67.553 402.594 67.13 402.059 66.902 401.306 C 66.375 399.569 67.051 396.914 67.721 395.742 C 67.878 395.462 68.23 395.365 68.507 395.526 C 68.785 395.685 68.882 396.037 68.722 396.313 C 68.24 397.163 67.567 399.514 68.008 400.973 C 68.142 401.414 68.36 401.706 68.673 401.863 C 69.128 402.088 69.531 402.098 69.935 401.877 C 71.215 401.179 72.122 398.451 72.269 397.118 C 72.303 396.804 72.569 396.585 72.907 396.608 C 73.223 396.643 73.452 396.929 73.418 397.247 C 73.266 398.596 72.322 401.892 70.487 402.891 Z " fill="rgb(239,220,189)"/><path d=" M 68.694 393.537 L 68.592 393.538 C 67.751 393.538 67.015 393.078 66.55 392.241 C 65.4 389.941 68.543 385.265 69.932 383.876 C 70.161 383.651 70.522 383.651 70.751 383.876 C 70.974 384.102 70.974 384.467 70.751 384.692 C 69.264 386.179 66.851 390.261 67.572 391.703 C 67.833 392.176 68.203 392.418 68.644 392.382 C 69.317 392.352 70.037 391.777 70.39 390.979 C 70.519 390.689 70.865 390.559 71.152 390.688 C 71.445 390.816 71.576 391.159 71.447 391.449 C 70.913 392.649 69.807 393.487 68.694 393.537 Z " fill="rgb(239,220,189)"/><path d=" M 83.85 472.155 C 84.108 472.342 84.164 472.702 83.977 472.961 C 82.556 474.915 79.985 482.05 82.495 483.892 C 82.84 484.135 83.177 484.166 83.55 483.999 C 84.37 483.628 85.166 482.37 85.493 481.296 C 85.554 481.03 85.603 480.797 85.639 480.602 C 85.695 480.298 85.975 480.079 86.292 480.134 C 86.598 480.181 86.816 480.462 86.781 480.771 C 86.756 480.995 86.703 481.248 86.627 481.519 C 86.562 481.794 86.489 482.102 86.412 482.435 C 85.861 484.749 84.713 489.563 85.937 490.421 C 86.561 490.816 86.963 490.679 87.216 490.54 C 89.138 489.481 90.248 483.404 90.248 481.669 C 90.248 481.352 90.508 481.091 90.827 481.091 C 91.144 481.091 91.404 481.352 91.404 481.669 C 91.404 483.006 90.415 490.096 87.774 491.552 C 87.499 491.703 87.138 491.835 86.709 491.835 C 86.298 491.835 85.823 491.714 85.297 491.382 C 83.901 490.403 84.101 487.747 84.743 484.592 C 84.518 484.778 84.279 484.938 84.024 485.05 C 83.275 485.39 82.515 485.317 81.822 484.829 C 78.496 482.39 81.458 474.465 83.044 472.281 C 83.231 472.021 83.594 471.965 83.85 472.155 Z " fill="rgb(255,243,219)"/><path d=" M 44.882 460.857 L 44.992 460.641 C 45.135 460.354 45.483 460.236 45.767 460.383 C 46.051 460.523 46.168 460.871 46.025 461.156 L 45.916 461.374 C 44.578 464.047 41.793 469.611 43.486 472.321 C 43.732 472.688 44.105 473.114 44.457 473.065 C 45.13 472.965 46.09 471.387 46.687 469.396 C 46.781 469.087 47.107 468.911 47.406 469.009 C 47.711 469.1 47.886 469.422 47.793 469.727 C 47.498 470.711 46.398 473.944 44.628 474.208 L 44.382 474.227 C 43.709 474.227 43.085 473.802 42.515 472.946 C 40.47 469.673 43.45 463.718 44.882 460.857 Z " fill="rgb(239,220,189)"/><path d=" M 51.039 469.963 C 51.348 470.041 51.537 470.354 51.459 470.664 C 50.23 475.584 50.102 479.474 51.154 480.125 C 51.674 480.448 52.778 479.943 54.181 478.746 C 54.425 478.542 54.788 478.569 54.998 478.813 C 55.203 479.053 55.174 479.419 54.931 479.627 C 53.555 480.799 52.429 481.38 51.522 481.38 C 51.163 481.38 50.837 481.289 50.545 481.108 C 48.288 479.708 49.649 473.142 50.339 470.383 C 50.416 470.073 50.727 469.881 51.039 469.963 Z " fill="rgb(239,220,189)"/><path d=" M 115.44 409.199 C 116.792 414.724 124.686 417.54 133.08 415.489 C 141.467 413.437 147.177 407.294 145.825 401.772 C 144.473 396.248 136.58 393.432 128.187 395.48 C 119.799 397.534 114.087 403.677 115.44 409.199 Z " fill="rgb(89,58,66)"/><path d=" M 137.778 396.652 C 140.469 397.31 142.925 399.485 143.512 402.243 C 143.835 403.759 141.449 404.049 141.132 402.549 C 140.786 400.921 139.01 399.413 137.437 399.032 C 135.949 398.668 136.271 396.289 137.778 396.652 Z " fill="rgb(147,97,112)"/><path d=" M 143.795 404.389 C 144.115 405.233 144.088 406.108 143.684 406.922 C 143 408.301 140.795 407.354 141.484 405.962 C 141.613 405.704 141.675 405.566 141.571 405.293 C 141.023 403.848 143.247 402.94 143.795 404.389 Z " fill="rgb(147,97,112)"/><path d=" M 115.242 392.962 C 115.242 394.848 116.272 396.377 117.542 396.377 C 118.811 396.377 119.841 394.848 119.841 392.962 C 119.841 391.075 118.811 389.546 117.542 389.546 C 116.272 389.546 115.242 391.075 115.242 392.962 Z " fill="rgb(89,58,66)"/><path d=" M 100.523 392.962 C 100.523 394.848 101.553 396.377 102.822 396.377 C 104.092 396.377 105.121 394.848 105.121 392.962 C 105.121 391.075 104.092 389.546 102.822 389.546 C 101.553 389.546 100.523 391.075 100.523 392.962 Z " fill="rgb(89,58,66)"/></g></g></svg>